<svg width="160" height="25" viewBox="0 0 160 25" fill="white" xmlns="http://www.w3.org/2000/svg">
<path d="M4.95051 10.422C5.08382 10.3653 5.14715 10.2154 5.09049 10.0821C5.03383 9.95207 4.88052 9.88875 4.7472 9.94541C3.90732 10.2954 3.14076 10.7886 2.47085 11.4085C0.951064 12.8117 0.0745197 14.7181 0.00452874 16.7711C-0.0654613 18.8242 0.677768 20.7839 2.09757 22.2837C3.63069 23.9035 5.70707 24.7234 7.79012 24.7234C9.69319 24.7234 11.6063 24.0368 13.106 22.6536C14.6225 21.2505 15.499 19.3441 15.569 17.2911C15.609 16.1012 15.3724 14.948 14.8925 13.8915C15.2724 13.7682 15.619 13.5682 15.9157 13.2949C16.1556 13.0716 16.3556 12.8083 16.5056 12.5184C16.5689 12.3884 16.5156 12.2318 16.3889 12.1684C16.2589 12.1051 16.1023 12.1551 16.0356 12.2851C15.9157 12.5217 15.7557 12.7317 15.5557 12.915C15.3024 13.1516 14.9925 13.3216 14.6558 13.4183C14.3392 12.8317 13.9493 12.2751 13.476 11.7785C13.0094 11.2819 12.4728 10.8619 11.8962 10.5087C12.0195 10.1854 12.2095 9.88875 12.4695 9.64878C13.3793 8.8089 14.8158 8.85556 15.6657 9.75543C16.1223 10.242 16.3423 10.8986 16.2589 11.5552C16.2389 11.6985 16.3423 11.8251 16.4856 11.8451C16.4989 11.8451 16.5089 11.8451 16.5189 11.8451C16.6489 11.8451 16.7622 11.7518 16.7789 11.6185C16.8789 10.8053 16.6122 9.99873 16.049 9.40215C14.9991 8.2923 13.2327 8.23564 12.1095 9.26883C11.8162 9.54213 11.5896 9.87542 11.4363 10.242C10.3198 9.65878 9.06994 9.33549 7.78678 9.33549C7.64347 9.33549 7.52682 9.45214 7.52682 9.59545C7.52682 9.73877 7.64347 9.85209 7.78678 9.85209C9.79317 9.85542 11.7262 10.6853 13.0927 12.1318C13.5893 12.655 13.9959 13.2383 14.3059 13.8615C14.8325 14.9081 15.0858 16.0712 15.0458 17.2711C14.9791 19.1875 14.1626 20.9639 12.7461 22.2737C9.81984 24.9767 5.21381 24.82 2.48085 21.9271C1.1577 20.5306 0.461132 18.7042 0.52779 16.7878C0.594447 14.8714 1.411 13.0983 2.82747 11.7885C3.45405 11.2086 4.17062 10.7486 4.95051 10.422Z" fill="#020072"/>
<path d="M13.9825 10.372C13.6992 10.6286 13.6859 11.0652 13.9458 11.3418C14.2125 11.6185 14.6524 11.6351 14.9324 11.3752C15.2123 11.1152 15.229 10.6819 14.9657 10.402C14.7057 10.1253 14.2625 10.112 13.9825 10.372Z" fill="#020072"/>
<path d="M16.7389 7.82559C16.4589 8.08555 16.4423 8.51883 16.7056 8.79546C16.9689 9.07208 17.4088 9.08875 17.6921 8.82878C17.972 8.56882 17.9854 8.13555 17.7221 7.85559C17.4621 7.57896 17.0188 7.56563 16.7389 7.82559Z" fill="#020072"/>
<path d="M20.4484 6.28259C20.7283 6.02596 20.7417 5.58936 20.4817 5.31273C20.2184 5.03277 19.7785 5.0161 19.4985 5.27607C19.2186 5.53603 19.2019 5.97264 19.4619 6.24926C19.7252 6.52589 20.1651 6.54256 20.4484 6.28259Z" fill="#020072"/>
<path d="M23.2046 3.73633C23.4846 3.47636 23.5012 3.04309 23.238 2.76646C22.978 2.4865 22.5347 2.46984 22.2548 2.7298C21.9748 2.98976 21.9581 3.42637 22.2214 3.703C22.4847 3.98296 22.9247 3.99629 23.2046 3.73633Z" fill="#020072"/>
<path d="M25.9642 1.18986C26.2442 0.929892 26.2609 0.496617 25.9976 0.21999C25.7343 -0.0599723 25.291 -0.0733027 25.011 0.183328C24.7311 0.443292 24.7177 0.879898 24.981 1.15653C25.241 1.43649 25.6809 1.44982 25.9642 1.18986Z" fill="#020072"/>
<path d="M38.0772 5.20496C39.427 5.20496 40.6002 5.43159 41.5967 5.88486C42.5899 6.33147 43.3598 6.97138 43.903 7.8046C44.443 8.63115 44.7163 9.60435 44.7163 10.7242C44.7163 11.854 44.443 12.8306 43.903 13.6571C43.3598 14.477 42.5899 15.1102 41.5967 15.5635C40.6002 16.0101 39.427 16.2301 38.0772 16.2301H35.4775V20.1362H31.2515V5.20496H38.0772ZM37.8239 12.9106C38.6838 12.9106 39.337 12.7239 39.7836 12.3506C40.2269 11.9707 40.4502 11.4274 40.4502 10.7242C40.4502 10.031 40.2269 9.49436 39.7836 9.11108C39.337 8.73113 38.6838 8.53783 37.8239 8.53783H35.4775V12.9106H37.8239Z" fill="#020072"/>
<path d="M58.9545 16.87V20.1362H46.9695V5.20496H58.6745V8.47117H51.1556V10.9908H57.7813V14.1371H51.1556V16.87H58.9545Z" fill="#020072"/>
<path d="M75.5125 5.20496V20.1362H72.033L65.4339 12.1773V20.1362H61.3011V5.20496H64.7807L71.3664 13.1639V5.20496H75.5125Z" fill="#020072"/>
<path d="M78.4907 5.20496H85.5564C87.1895 5.20496 88.6393 5.51158 89.9025 6.12483C91.1623 6.73808 92.1422 7.60462 92.8354 8.72447C93.5353 9.84431 93.8886 11.1608 93.8886 12.6706C93.8886 14.1837 93.5353 15.4969 92.8354 16.6167C92.1422 17.7366 91.1623 18.6031 89.9025 19.2163C88.6393 19.8296 87.1895 20.1362 85.5564 20.1362H78.4907V5.20496ZM85.3831 16.7634C86.6629 16.7634 87.6894 16.4034 88.4627 15.6835C89.2359 14.9569 89.6225 13.9504 89.6225 12.6706C89.6225 11.3908 89.2359 10.3909 88.4627 9.671C87.6894 8.94444 86.6629 8.57782 85.3831 8.57782H82.7168V16.7634H85.3831Z" fill="#020072"/>
<path d="M102.999 20.4295C100.776 20.4295 99.0464 19.8263 97.8133 18.6164C96.5868 17.4099 95.9735 15.6968 95.9735 13.4838V5.20496H100.2V13.3505C100.2 15.7435 101.146 16.9367 103.039 16.9367C104.912 16.9367 105.852 15.7435 105.852 13.3505V5.20496H110.012V13.4838C110.012 15.6968 109.392 17.4099 108.158 18.6164C106.932 19.8263 105.212 20.4295 102.999 20.4295Z" fill="#020072"/>
<path d="M112.87 5.20496H117.096V16.79H124.215V20.1362H112.87V5.20496Z" fill="#020072"/>
<path d="M132.772 20.4295C130.549 20.4295 128.819 19.8263 127.586 18.6164C126.359 17.4099 125.746 15.6968 125.746 13.4838V5.20496H129.972V13.3505C129.972 15.7435 130.919 16.9367 132.812 16.9367C134.685 16.9367 135.625 15.7435 135.625 13.3505V5.20496H139.784V13.4838C139.784 15.6968 139.164 17.4099 137.931 18.6164C136.705 19.8263 134.985 20.4295 132.772 20.4295Z" fill="#020072"/>
<path d="M156.121 20.1362L156.081 12.2173L152.241 18.6698H150.361L146.549 12.4306V20.1362H142.642V5.20496H146.122L151.361 13.8171L156.481 5.20496H159.96L160 20.1362H156.121Z" fill="#020072"/>
</svg>
